{"title":"Naruto Episodes 69-80 The Destruction of Konoha! MP4 OOTR","uid":7924298,"size":2743324458,"categoryP":"video","categoryS":"tv_shows","magnet":"?xt=urn:btih:e039d3ae1cc1e6dcc0db7f52101e5357fa36db63&amp;dn=Naruto+Episodes+69-80+The+Destruction+of+Konoha%21+MP4+OOTR&amp;tr=udp%3A%2F%2Ftracker.openbittorrent.com%3A80&amp;tr=udp%3A%2F%2Fopen.demonii.com%3A1337&amp;tr=udp%3A%2F%2Ftracker.coppersurfer.tk%3A6969&amp;tr=udp%3A%2F%2Fexodus.desync.com%3A6969","seeders":0,"leechers":0,"uploader":"OOTR","files":1,"time":1355544128,"description":"Naruto Episodes 69-80\n\nEdited to omit intros/outros and promote continuity.\n\nPlease SEED and enjoy! Leave a comment if you like.\n\nFormat                                   : MPEG-4\nCodec ID                                 : M4V \nFile size                                : 2.55 GiB\nDuration                                 : 3h 53mn\nOverall bit rate mode                    : Variable\nOverall bit rate                         : 1 570 Kbps\nEncoded date                             : UTC 2012-12-13 09:30:15\n\nVideo\nID                                       : 1\nFormat                                   : AVC\nFormat/Info                              : Advanced Video Codec\nFormat profile                           : &lt;a class=&quot;__cf_email__&quot; href=&quot;/cdn-cgi/l/email-protection&quot; data-cfemail=&quot;a5e7c4d6c0c9cccbc0e5e9968b95&quot;&gt;[email&amp;#160;protected]&lt;/a&gt;&lt;script cf-hash='f9e31' type=&quot;text/javascript&quot;&gt;\n/* &lt;![CDATA[ */!function(){try{var t=&quot;currentScript&quot;in document?document.currentScript:function(){for(var t=document.getElementsByTagName(&quot;script&quot;),e=t.length;e--;)if(t[e].getAttribute(&quot;cf-hash&quot;))return t[e]}();if(t&amp;&amp;t.previousSibling){var e,r,n,i,c=t.previousSibling,a=c.getAttribute(&quot;data-cfemail&quot;);if(a){for(e=&quot;&quot;,r=parseInt(a.substr(0,2),16),n=2;a.length-n;n+=2)i=parseInt(a.substr(n,2),16)^r,e+=String.fromCharCode(i);e=document.createTextNode(e),c.parentNode.replaceChild(e,c)}}}catch(u){}}();/* ]]&gt; */&lt;/script&gt;\nFormat settings, CABAC                   : No\nFormat settings, ReFrames                : 2 frames\nCodec ID                                 : avc1\nCodec ID/Info                            : Advanced Video Coding\nDuration                                 : 3h 53mn\nSource duration                          : 3h 53mn\nBit rate mode                            : Variable\nBit rate                                 : 1 442 Kbps\nWidth                                    : 640 pixels\nHeight                                   : 480 pixels\nDisplay aspect ratio                     : 4:3\nFrame rate mode                          : Variable\nFrame rate                               : 23.976 fps\nMinimum frame rate                       : 23.976 fps\nMaximum frame rate                       : 24.000 fps\nStandard                                 : NTSC\nColor space                              : YUV\nChroma subsampling                       : 4:2:0\nBit depth                                : 8 bits\nScan type                                : Progressive\nBits/(Pixel*Frame)                       : 0.196\nStream size                              : 2.35 GiB (92%)\nSource stream size                       : 2.35 GiB (92%)\nLanguage                                 : English\nEncoded date                             : UTC 2012-12-13 09:30:15\n\n\nAudio\nID                                       : 2\nFormat                                   : AAC\nFormat/Info                              : Advanced Audio Codec\nFormat profile                           : LC\nCodec ID                                 : 40\nDuration                                 : 3h 53mn\nSource duration                          : 3h 53mn\nBit rate mode                            : Variable\nBit rate                                 : 126 Kbps\nMaximum bit rate                         : 215 Kbps\nChannel(s)                               : 2 channels\nChannel positions                        : Front: L R\nSampling rate                            : 44.1 KHz\nCompression mode                         : Lossy\nStream size                              : 209 MiB (8%)","torrent":{"xt":"urn:btih:e039d3ae1cc1e6dcc0db7f52101e5357fa36db63","amp;dn":"Naruto+Episodes+69-80+The+Destruction+of+Konoha%21+MP4+OOTR","amp;tr":["udp%3A%2F%2Ftracker.openbittorrent.com%3A80","udp%3A%2F%2Fopen.demonii.com%3A1337","udp%3A%2F%2Ftracker.coppersurfer.tk%3A6969","udp%3A%2F%2Fexodus.desync.com%3A6969"],"infoHash":"e039d3ae1cc1e6dcc0db7f52101e5357fa36db63","infoHashBuffer":{"type":"Buffer","data":[224,57,211,174,28,193,230,220,192,219,127,82,16,30,83,87,250,54,219,99]},"announce":[],"urlList":[]}}